<svg width="87" height="54" viewBox="0 0 87 54" fill="none" xmlns="http://www.w3.org/2000/svg">
<path d="M0.28125 1.375H2.39062L4.40625 7.29688L6.4375 1.375H8.55469V13H7.09375V2.72656L5.01562 8.85156H3.82031L1.73438 2.72656V13H0.28125V1.375Z" fill="white"/>
<path d="M12.1094 4.28125H15.7891V11.8828H18.6406V13H11.5V11.8828H14.3516V5.39844H12.1094V4.28125ZM14.3516 0.882812H15.7891V2.69531H14.3516V0.882812Z" fill="white"/>
<path d="M27.4922 7.57812V13H26.0469V7.57812C26.0469 6.79167 25.9089 6.21354 25.6328 5.84375C25.3568 5.47396 24.9245 5.28906 24.3359 5.28906C23.6641 5.28906 23.1458 5.52865 22.7812 6.00781C22.4219 6.48177 22.2422 7.16406 22.2422 8.05469V13H20.8047V4.25H22.2422V5.5625C22.4974 5.0625 22.8438 4.6849 23.2812 4.42969C23.7188 4.16927 24.237 4.03906 24.8359 4.03906C25.7266 4.03906 26.3906 4.33333 26.8281 4.92188C27.2708 5.50521 27.4922 6.39062 27.4922 7.57812Z" fill="white"/>
<path d="M31.3906 4.28125H35.0703V11.8828H37.9219V13H30.7812V11.8828H33.6328V5.39844H31.3906V4.28125ZM33.6328 0.882812H35.0703V2.69531H33.6328V0.882812Z" fill="white"/>
<path d="M43.8438 5.14062C44.0208 4.76562 44.2448 4.48958 44.5156 4.3125C44.7917 4.13021 45.1224 4.03906 45.5078 4.03906C46.2109 4.03906 46.7057 4.3125 46.9922 4.85938C47.2839 5.40104 47.4297 6.42448 47.4297 7.92969V13H46.1172V7.99219C46.1172 6.75781 46.0469 5.99219 45.9062 5.69531C45.7708 5.39323 45.5208 5.24219 45.1562 5.24219C44.7396 5.24219 44.4531 5.40365 44.2969 5.72656C44.1458 6.04427 44.0703 6.79948 44.0703 7.99219V13H42.7578V7.99219C42.7578 6.74219 42.6823 5.97135 42.5312 5.67969C42.3854 5.38802 42.1198 5.24219 41.7344 5.24219C41.3542 5.24219 41.0885 5.40365 40.9375 5.72656C40.7917 6.04427 40.7188 6.79948 40.7188 7.99219V13H39.4141V4.25H40.7188V5C40.8906 4.6875 41.1042 4.45052 41.3594 4.28906C41.6198 4.1224 41.9141 4.03906 42.2422 4.03906C42.638 4.03906 42.9661 4.13021 43.2266 4.3125C43.4922 4.49479 43.6979 4.77083 43.8438 5.14062Z" fill="white"/>
<path d="M49.7266 9.6875V4.26562H51.1641V9.6875C51.1641 10.474 51.3021 11.0521 51.5781 11.4219C51.8594 11.7917 52.2917 11.9766 52.875 11.9766C53.5521 11.9766 54.0703 11.7396 54.4297 11.2656C54.7891 10.7865 54.9688 10.1016 54.9688 9.21094V4.26562H56.4141V13H54.9688V11.6875C54.7135 12.1927 54.3646 12.5755 53.9219 12.8359C53.4844 13.0964 52.9714 13.2266 52.3828 13.2266C51.487 13.2266 50.8203 12.9349 50.3828 12.3516C49.9453 11.763 49.7266 10.875 49.7266 9.6875Z" fill="white"/>
<path d="M63.125 5.14062C63.3021 4.76562 63.526 4.48958 63.7969 4.3125C64.0729 4.13021 64.4036 4.03906 64.7891 4.03906C65.4922 4.03906 65.987 4.3125 66.2734 4.85938C66.5651 5.40104 66.7109 6.42448 66.7109 7.92969V13H65.3984V7.99219C65.3984 6.75781 65.3281 5.99219 65.1875 5.69531C65.0521 5.39323 64.8021 5.24219 64.4375 5.24219C64.0208 5.24219 63.7344 5.40365 63.5781 5.72656C63.4271 6.04427 63.3516 6.79948 63.3516 7.99219V13H62.0391V7.99219C62.0391 6.74219 61.9635 5.97135 61.8125 5.67969C61.6667 5.38802 61.401 5.24219 61.0156 5.24219C60.6354 5.24219 60.3698 5.40365 60.2188 5.72656C60.0729 6.04427 60 6.79948 60 7.99219V13H58.6953V4.25H60V5C60.1719 4.6875 60.3854 4.45052 60.6406 4.28906C60.901 4.1224 61.1953 4.03906 61.5234 4.03906C61.9193 4.03906 62.2474 4.13021 62.5078 4.3125C62.7734 4.49479 62.9792 4.77083 63.125 5.14062Z" fill="white"/>
<path d="M1.57031 20.3359H8.04688V21.6641H5.60156V30.6719H8.04688V32H1.57031V30.6719H4.01562V21.6641H1.57031V20.3359Z" fill="white"/>
<path d="M17.8516 26.5781V32H16.4062V26.5781C16.4062 25.7917 16.2682 25.2135 15.9922 24.8438C15.7161 24.474 15.2839 24.2891 14.6953 24.2891C14.0234 24.2891 13.5052 24.5286 13.1406 25.0078C12.7812 25.4818 12.6016 26.1641 12.6016 27.0547V32H11.1641V23.25H12.6016V24.5625C12.8568 24.0625 13.2031 23.6849 13.6406 23.4297C14.0781 23.1693 14.5964 23.0391 15.1953 23.0391C16.0859 23.0391 16.75 23.3333 17.1875 23.9219C17.6302 24.5052 17.8516 25.3906 17.8516 26.5781Z" fill="white"/>
<path d="M20.0625 23.25H21.5547L24.0938 30.5938L26.6406 23.25H28.1328L25.0234 32H23.1719L20.0625 23.25Z" fill="white"/>
<path d="M37.6719 26.9062V27.6094H31.4453V27.6562C31.4036 28.849 31.6302 29.7057 32.125 30.2266C32.625 30.7474 33.3281 31.0078 34.2344 31.0078C34.6927 31.0078 35.1719 30.9349 35.6719 30.7891C36.1719 30.6432 36.7057 30.4219 37.2734 30.125V31.5547C36.7266 31.7786 36.1979 31.9453 35.6875 32.0547C35.1823 32.1693 34.6927 32.2266 34.2188 32.2266C32.8594 32.2266 31.7969 31.8203 31.0312 31.0078C30.2656 30.1901 29.8828 29.0651 29.8828 27.6328C29.8828 26.237 30.2578 25.1224 31.0078 24.2891C31.7578 23.4557 32.7578 23.0391 34.0078 23.0391C35.1224 23.0391 36 23.4167 36.6406 24.1719C37.2865 24.9271 37.6302 25.8385 37.6719 26.9062ZM36.2344 26.4844C36.1719 25.8802 35.9505 25.3594 35.5703 24.9219C35.1953 24.4792 34.6536 24.2578 33.9453 24.2578C33.2526 24.2578 32.6823 24.487 32.2344 24.9453C31.7865 25.4036 31.5417 25.9193 31.5 26.4922L36.2344 26.4844Z" fill="white"/>
<path d="M46.7734 26.5781V32H45.3281V26.5781C45.3281 25.7917 45.1901 25.2135 44.9141 24.8438C44.638 24.474 44.2057 24.2891 43.6172 24.2891C42.9453 24.2891 42.4271 24.5286 42.0625 25.0078C41.7031 25.4818 41.5234 26.1641 41.5234 27.0547V32H40.0859V23.25H41.5234V24.5625C41.7786 24.0625 42.125 23.6849 42.5625 23.4297C43 23.1693 43.5182 23.0391 44.1172 23.0391C45.0078 23.0391 45.6719 23.3333 46.1094 23.9219C46.5521 24.5052 46.7734 25.3906 46.7734 26.5781Z" fill="white"/>
<path d="M53 20.7656V23.25H56.2656V24.3672H53V29.1172C53 29.763 53.1224 30.2135 53.3672 30.4688C53.612 30.724 54.0391 30.8516 54.6484 30.8516H56.2656V32H54.5078C53.4297 32 52.6693 31.7839 52.2266 31.3516C51.7839 30.9193 51.5625 30.1745 51.5625 29.1172V24.3672H49.2266V23.25H51.5625V20.7656H53Z" fill="white"/>
<path d="M62.6562 24.2578C61.9271 24.2578 61.375 24.5417 61 25.1094C60.625 25.6771 60.4375 26.5182 60.4375 27.6328C60.4375 28.7422 60.625 29.5833 61 30.1562C61.375 30.724 61.9271 31.0078 62.6562 31.0078C63.3906 31.0078 63.9453 30.724 64.3203 30.1562C64.6953 29.5833 64.8828 28.7422 64.8828 27.6328C64.8828 26.5182 64.6953 25.6771 64.3203 25.1094C63.9453 24.5417 63.3906 24.2578 62.6562 24.2578ZM62.6562 23.0391C63.8698 23.0391 64.7969 23.4323 65.4375 24.2188C66.0833 25.0052 66.4062 26.1432 66.4062 27.6328C66.4062 29.1276 66.0859 30.2682 65.4453 31.0547C64.8047 31.8359 63.875 32.2266 62.6562 32.2266C61.4427 32.2266 60.5156 31.8359 59.875 31.0547C59.2344 30.2682 58.9141 29.1276 58.9141 27.6328C58.9141 26.1432 59.2344 25.0052 59.875 24.2188C60.5156 23.4323 61.4427 23.0391 62.6562 23.0391Z" fill="white"/>
<path d="M76.5078 25.0547C76.2005 24.8151 75.888 24.6406 75.5703 24.5312C75.2526 24.4219 74.9036 24.3672 74.5234 24.3672C73.6276 24.3672 72.9427 24.6484 72.4688 25.2109C71.9948 25.7734 71.7578 26.5859 71.7578 27.6484V32H70.3125V23.25H71.7578V24.9609C71.9974 24.3411 72.3646 23.8672 72.8594 23.5391C73.3594 23.2057 73.9505 23.0391 74.6328 23.0391C74.987 23.0391 75.3177 23.0833 75.625 23.1719C75.9323 23.2604 76.2266 23.3984 76.5078 23.5859V25.0547Z" fill="white"/>
<path d="M83.8281 29.1875C83.5885 29.7969 83.2839 30.599 82.9141 31.5938C82.3984 32.9688 82.0521 33.8073 81.875 34.1094C81.6354 34.5156 81.3359 34.8203 80.9766 35.0234C80.6172 35.2266 80.1979 35.3281 79.7188 35.3281H78.5625V34.125H79.4141C79.8359 34.125 80.1667 34.0026 80.4062 33.7578C80.6458 33.513 80.9505 32.8802 81.3203 31.8594L77.9375 23.25H79.4609L82.0547 30.0938L84.6094 23.25H86.1328L83.8281 29.1875Z" fill="white"/>
<path d="M8.38281 50.5859C7.98177 50.7995 7.57031 50.9583 7.14844 51.0625C6.72656 51.1719 6.27865 51.2266 5.80469 51.2266C4.3099 51.2266 3.14844 50.6979 2.32031 49.6406C1.4974 48.5833 1.08594 47.0964 1.08594 45.1797C1.08594 43.2734 1.5 41.7891 2.32812 40.7266C3.16146 39.6589 4.32031 39.125 5.80469 39.125C6.27865 39.125 6.72656 39.1797 7.14844 39.2891C7.57031 39.3932 7.98177 39.5521 8.38281 39.7656V41.3828C7.9974 41.0651 7.58333 40.8229 7.14062 40.6562C6.69792 40.4896 6.2526 40.4062 5.80469 40.4062C4.77865 40.4062 4.01042 40.8021 3.5 41.5938C2.98958 42.3854 2.73438 43.5807 2.73438 45.1797C2.73438 46.7734 2.98958 47.9661 3.5 48.7578C4.01042 49.5495 4.77865 49.9453 5.80469 49.9453C6.26302 49.9453 6.71094 49.862 7.14844 49.6953C7.59115 49.5286 8.0026 49.2865 8.38281 48.9688V50.5859Z" fill="white"/>
<path d="M14.4531 43.2578C13.724 43.2578 13.1719 43.5417 12.7969 44.1094C12.4219 44.6771 12.2344 45.5182 12.2344 46.6328C12.2344 47.7422 12.4219 48.5833 12.7969 49.1562C13.1719 49.724 13.724 50.0078 14.4531 50.0078C15.1875 50.0078 15.7422 49.724 16.1172 49.1562C16.4922 48.5833 16.6797 47.7422 16.6797 46.6328C16.6797 45.5182 16.4922 44.6771 16.1172 44.1094C15.7422 43.5417 15.1875 43.2578 14.4531 43.2578ZM14.4531 42.0391C15.6667 42.0391 16.5938 42.4323 17.2344 43.2188C17.8802 44.0052 18.2031 45.1432 18.2031 46.6328C18.2031 48.1276 17.8828 49.2682 17.2422 50.0547C16.6016 50.8359 15.6719 51.2266 14.4531 51.2266C13.2396 51.2266 12.3125 50.8359 11.6719 50.0547C11.0312 49.2682 10.7109 48.1276 10.7109 46.6328C10.7109 45.1432 11.0312 44.0052 11.6719 43.2188C12.3125 42.4323 13.2396 42.0391 14.4531 42.0391Z" fill="white"/>
<path d="M27.4922 45.5781V51H26.0469V45.5781C26.0469 44.7917 25.9089 44.2135 25.6328 43.8438C25.3568 43.474 24.9245 43.2891 24.3359 43.2891C23.6641 43.2891 23.1458 43.5286 22.7812 44.0078C22.4219 44.4818 22.2422 45.1641 22.2422 46.0547V51H20.8047V42.25H22.2422V43.5625C22.4974 43.0625 22.8438 42.6849 23.2812 42.4297C23.7188 42.1693 24.237 42.0391 24.8359 42.0391C25.7266 42.0391 26.3906 42.3333 26.8281 42.9219C27.2708 43.5052 27.4922 44.3906 27.4922 45.5781Z" fill="white"/>
<path d="M33.7188 39.7656V42.25H36.9844V43.3672H33.7188V48.1172C33.7188 48.763 33.8411 49.2135 34.0859 49.4688C34.3307 49.724 34.7578 49.8516 35.3672 49.8516H36.9844V51H35.2266C34.1484 51 33.388 50.7839 32.9453 50.3516C32.5026 49.9193 32.2812 49.1745 32.2812 48.1172V43.3672H29.9453V42.25H32.2812V39.7656H33.7188Z" fill="white"/>
<path d="M47.5859 44.0547C47.2786 43.8151 46.9661 43.6406 46.6484 43.5312C46.3307 43.4219 45.9818 43.3672 45.6016 43.3672C44.7057 43.3672 44.0208 43.6484 43.5469 44.2109C43.0729 44.7734 42.8359 45.5859 42.8359 46.6484V51H41.3906V42.25H42.8359V43.9609C43.0755 43.3411 43.4427 42.8672 43.9375 42.5391C44.4375 42.2057 45.0286 42.0391 45.7109 42.0391C46.0651 42.0391 46.3958 42.0833 46.7031 42.1719C47.0104 42.2604 47.3047 42.3984 47.5859 42.5859V44.0547Z" fill="white"/>
<path d="M53.0156 43.2578C52.2865 43.2578 51.7344 43.5417 51.3594 44.1094C50.9844 44.6771 50.7969 45.5182 50.7969 46.6328C50.7969 47.7422 50.9844 48.5833 51.3594 49.1562C51.7344 49.724 52.2865 50.0078 53.0156 50.0078C53.75 50.0078 54.3047 49.724 54.6797 49.1562C55.0547 48.5833 55.2422 47.7422 55.2422 46.6328C55.2422 45.5182 55.0547 44.6771 54.6797 44.1094C54.3047 43.5417 53.75 43.2578 53.0156 43.2578ZM53.0156 42.0391C54.2292 42.0391 55.1562 42.4323 55.7969 43.2188C56.4427 44.0052 56.7656 45.1432 56.7656 46.6328C56.7656 48.1276 56.4453 49.2682 55.8047 50.0547C55.1641 50.8359 54.2344 51.2266 53.0156 51.2266C51.8021 51.2266 50.875 50.8359 50.2344 50.0547C49.5938 49.2682 49.2734 48.1276 49.2734 46.6328C49.2734 45.1432 49.5938 44.0052 50.2344 43.2188C50.875 42.4323 51.8021 42.0391 53.0156 42.0391Z" fill="white"/>
<path d="M63.4609 47.8359C63.4609 48.4818 63.5781 48.9688 63.8125 49.2969C64.0521 49.625 64.4036 49.7891 64.8672 49.7891H66.5469V51H64.7266C63.8672 51 63.2005 50.7266 62.7266 50.1797C62.2578 49.6276 62.0234 48.8464 62.0234 47.8359V39.9219H59.7188V38.7969H63.4609V47.8359Z" fill="white"/>
<path d="M0 14.3672H67.4766V15.0703H0V14.3672ZM0 33.3672H86.7578V34.0703H0V33.3672ZM0 52.3672H67.4766V53.0703H0V52.3672Z" fill="white"/>
</svg>
