<svg width="111" height="48" viewBox="0 0 111 48" fill="none" xmlns="http://www.w3.org/2000/svg">
<path d="M0 40.1875H1.05469L2.0625 43.1484L3.07812 40.1875H4.13672V46H3.40625V40.8633L2.36719 43.9258H1.76953L0.726562 40.8633V46H0V40.1875Z" fill="black"/>
<path d="M5.91406 41.6406H7.75391V45.4414H9.17969V46H5.60938V45.4414H7.03516V42.1992H5.91406V41.6406ZM7.03516 39.9414H7.75391V40.8477H7.03516V39.9414Z" fill="black"/>
<path d="M13.6055 43.2891V46H12.8828V43.2891C12.8828 42.8958 12.8138 42.6068 12.6758 42.4219C12.5378 42.237 12.3216 42.1445 12.0273 42.1445C11.6914 42.1445 11.4323 42.2643 11.25 42.5039C11.0703 42.7409 10.9805 43.082 10.9805 43.5273V46H10.2617V41.625H10.9805V42.2812C11.1081 42.0312 11.2812 41.8424 11.5 41.7148C11.7188 41.5846 11.9779 41.5195 12.2773 41.5195C12.7227 41.5195 13.0547 41.6667 13.2734 41.9609C13.4948 42.2526 13.6055 42.6953 13.6055 43.2891Z" fill="black"/>
<path d="M15.5547 41.6406H17.3945V45.4414H18.8203V46H15.25V45.4414H16.6758V42.1992H15.5547V41.6406ZM16.6758 39.9414H17.3945V40.8477H16.6758V39.9414Z" fill="black"/>
<path d="M21.7812 42.0703C21.8698 41.8828 21.9818 41.7448 22.1172 41.6562C22.2552 41.5651 22.4206 41.5195 22.6133 41.5195C22.9648 41.5195 23.2122 41.6562 23.3555 41.9297C23.5013 42.2005 23.5742 42.7122 23.5742 43.4648V46H22.918V43.4961C22.918 42.8789 22.8828 42.4961 22.8125 42.3477C22.7448 42.1966 22.6198 42.1211 22.4375 42.1211C22.2292 42.1211 22.0859 42.2018 22.0078 42.3633C21.9323 42.5221 21.8945 42.8997 21.8945 43.4961V46H21.2383V43.4961C21.2383 42.8711 21.2005 42.4857 21.125 42.3398C21.0521 42.194 20.9193 42.1211 20.7266 42.1211C20.5365 42.1211 20.4036 42.2018 20.3281 42.3633C20.2552 42.5221 20.2188 42.8997 20.2188 43.4961V46H19.5664V41.625H20.2188V42C20.3047 41.8438 20.4115 41.7253 20.5391 41.6445C20.6693 41.5612 20.8164 41.5195 20.9805 41.5195C21.1784 41.5195 21.3424 41.5651 21.4727 41.6562C21.6055 41.7474 21.7083 41.8854 21.7812 42.0703Z" fill="black"/>
<path d="M24.7227 44.3438V41.6328H25.4414V44.3438C25.4414 44.737 25.5104 45.026 25.6484 45.2109C25.7891 45.3958 26.0052 45.4883 26.2969 45.4883C26.6354 45.4883 26.8945 45.3698 27.0742 45.1328C27.2539 44.8932 27.3438 44.5508 27.3438 44.1055V41.6328H28.0664V46H27.3438V45.3438C27.2161 45.5964 27.0417 45.7878 26.8203 45.918C26.6016 46.0482 26.3451 46.1133 26.0508 46.1133C25.6029 46.1133 25.2695 45.9674 25.0508 45.6758C24.832 45.3815 24.7227 44.9375 24.7227 44.3438Z" fill="black"/>
<path d="M31.4219 42.0703C31.5104 41.8828 31.6224 41.7448 31.7578 41.6562C31.8958 41.5651 32.0612 41.5195 32.2539 41.5195C32.6055 41.5195 32.8529 41.6562 32.9961 41.9297C33.1419 42.2005 33.2148 42.7122 33.2148 43.4648V46H32.5586V43.4961C32.5586 42.8789 32.5234 42.4961 32.4531 42.3477C32.3854 42.1966 32.2604 42.1211 32.0781 42.1211C31.8698 42.1211 31.7266 42.2018 31.6484 42.3633C31.5729 42.5221 31.5352 42.8997 31.5352 43.4961V46H30.8789V43.4961C30.8789 42.8711 30.8411 42.4857 30.7656 42.3398C30.6927 42.194 30.5599 42.1211 30.3672 42.1211C30.1771 42.1211 30.0443 42.2018 29.9688 42.3633C29.8958 42.5221 29.8594 42.8997 29.8594 43.4961V46H29.207V41.625H29.8594V42C29.9453 41.8438 30.0521 41.7253 30.1797 41.6445C30.3099 41.5612 30.457 41.5195 30.6211 41.5195C30.819 41.5195 30.9831 41.5651 31.1133 41.6562C31.2461 41.7474 31.349 41.8854 31.4219 42.0703Z" fill="black"/>
<path d="M34.3867 40.168H37.625V40.832H36.4023V45.3359H37.625V46H34.3867V45.3359H35.6094V40.832H34.3867V40.168Z" fill="black"/>
<path d="M42.5273 43.2891V46H41.8047V43.2891C41.8047 42.8958 41.7357 42.6068 41.5977 42.4219C41.4596 42.237 41.2435 42.1445 40.9492 42.1445C40.6133 42.1445 40.3542 42.2643 40.1719 42.5039C39.9922 42.7409 39.9023 43.082 39.9023 43.5273V46H39.1836V41.625H39.9023V42.2812C40.0299 42.0312 40.2031 41.8424 40.4219 41.7148C40.6406 41.5846 40.8997 41.5195 41.1992 41.5195C41.6445 41.5195 41.9766 41.6667 42.1953 41.9609C42.4167 42.2526 42.5273 42.6953 42.5273 43.2891Z" fill="black"/>
<path d="M43.6328 41.625H44.3789L45.6484 45.2969L46.9219 41.625H47.668L46.1133 46H45.1875L43.6328 41.625Z" fill="black"/>
<path d="M52.4375 43.4531V43.8047H49.3242V43.8281C49.3034 44.4245 49.4167 44.8529 49.6641 45.1133C49.9141 45.3737 50.2656 45.5039 50.7188 45.5039C50.9479 45.5039 51.1875 45.4674 51.4375 45.3945C51.6875 45.3216 51.9544 45.2109 52.2383 45.0625V45.7773C51.9648 45.8893 51.7005 45.9727 51.4453 46.0273C51.1927 46.0846 50.9479 46.1133 50.7109 46.1133C50.0312 46.1133 49.5 45.9102 49.1172 45.5039C48.7344 45.0951 48.543 44.5326 48.543 43.8164C48.543 43.1185 48.7305 42.5612 49.1055 42.1445C49.4805 41.7279 49.9805 41.5195 50.6055 41.5195C51.1628 41.5195 51.6016 41.7083 51.9219 42.0859C52.2448 42.4635 52.4167 42.9193 52.4375 43.4531ZM51.7188 43.2422C51.6875 42.9401 51.5768 42.6797 51.3867 42.4609C51.1992 42.2396 50.9284 42.1289 50.5742 42.1289C50.2279 42.1289 49.9427 42.2435 49.7188 42.4727C49.4948 42.7018 49.3724 42.9596 49.3516 43.2461L51.7188 43.2422Z" fill="black"/>
<path d="M56.9883 43.2891V46H56.2656V43.2891C56.2656 42.8958 56.1966 42.6068 56.0586 42.4219C55.9206 42.237 55.7044 42.1445 55.4102 42.1445C55.0742 42.1445 54.8151 42.2643 54.6328 42.5039C54.4531 42.7409 54.3633 43.082 54.3633 43.5273V46H53.6445V41.625H54.3633V42.2812C54.4909 42.0312 54.6641 41.8424 54.8828 41.7148C55.1016 41.5846 55.3607 41.5195 55.6602 41.5195C56.1055 41.5195 56.4375 41.6667 56.6562 41.9609C56.8776 42.2526 56.9883 42.6953 56.9883 43.2891Z" fill="black"/>
<path d="M60.1016 40.3828V41.625H61.7344V42.1836H60.1016V44.5586C60.1016 44.8815 60.1628 45.1068 60.2852 45.2344C60.4076 45.362 60.6211 45.4258 60.9258 45.4258H61.7344V46H60.8555C60.3164 46 59.9362 45.8919 59.7148 45.6758C59.4935 45.4596 59.3828 45.0872 59.3828 44.5586V42.1836H58.2148V41.625H59.3828V40.3828H60.1016Z" fill="black"/>
<path d="M64.9297 42.1289C64.5651 42.1289 64.2891 42.2708 64.1016 42.5547C63.9141 42.8385 63.8203 43.2591 63.8203 43.8164C63.8203 44.3711 63.9141 44.7917 64.1016 45.0781C64.2891 45.362 64.5651 45.5039 64.9297 45.5039C65.2969 45.5039 65.5742 45.362 65.7617 45.0781C65.9492 44.7917 66.043 44.3711 66.043 43.8164C66.043 43.2591 65.9492 42.8385 65.7617 42.5547C65.5742 42.2708 65.2969 42.1289 64.9297 42.1289ZM64.9297 41.5195C65.5365 41.5195 66 41.7161 66.3203 42.1094C66.6432 42.5026 66.8047 43.0716 66.8047 43.8164C66.8047 44.5638 66.6445 45.1341 66.3242 45.5273C66.0039 45.918 65.5391 46.1133 64.9297 46.1133C64.3229 46.1133 63.8594 45.918 63.5391 45.5273C63.2188 45.1341 63.0586 44.5638 63.0586 43.8164C63.0586 43.0716 63.2188 42.5026 63.5391 42.1094C63.8594 41.7161 64.3229 41.5195 64.9297 41.5195Z" fill="black"/>
<path d="M71.8555 42.5273C71.7018 42.4076 71.5456 42.3203 71.3867 42.2656C71.2279 42.2109 71.0534 42.1836 70.8633 42.1836C70.4154 42.1836 70.0729 42.3242 69.8359 42.6055C69.599 42.8867 69.4805 43.293 69.4805 43.8242V46H68.7578V41.625H69.4805V42.4805C69.6003 42.1706 69.7839 41.9336 70.0312 41.7695C70.2812 41.6029 70.5768 41.5195 70.918 41.5195C71.0951 41.5195 71.2604 41.5417 71.4141 41.5859C71.5677 41.6302 71.7148 41.6992 71.8555 41.793V42.5273Z" fill="black"/>
<path d="M75.5156 44.5938C75.3958 44.8984 75.2435 45.2995 75.0586 45.7969C74.8008 46.4844 74.6276 46.9036 74.5391 47.0547C74.4193 47.2578 74.2695 47.4102 74.0898 47.5117C73.9102 47.6133 73.7005 47.6641 73.4609 47.6641H72.8828V47.0625H73.3086C73.5195 47.0625 73.6849 47.0013 73.8047 46.8789C73.9245 46.7565 74.0768 46.4401 74.2617 45.9297L72.5703 41.625H73.332L74.6289 45.0469L75.9062 41.625H76.668L75.5156 44.5938Z" fill="black"/>
<path d="M81.1758 45.793C80.9753 45.8997 80.7695 45.9792 80.5586 46.0312C80.3477 46.0859 80.1237 46.1133 79.8867 46.1133C79.1393 46.1133 78.5586 45.849 78.1445 45.3203C77.7331 44.7917 77.5273 44.0482 77.5273 43.0898C77.5273 42.1367 77.7344 41.3945 78.1484 40.8633C78.5651 40.3294 79.1445 40.0625 79.8867 40.0625C80.1237 40.0625 80.3477 40.0898 80.5586 40.1445C80.7695 40.1966 80.9753 40.276 81.1758 40.3828V41.1914C80.9831 41.0326 80.776 40.9115 80.5547 40.8281C80.3333 40.7448 80.1107 40.7031 79.8867 40.7031C79.3737 40.7031 78.9896 40.901 78.7344 41.2969C78.4792 41.6927 78.3516 42.2904 78.3516 43.0898C78.3516 43.8867 78.4792 44.4831 78.7344 44.8789C78.9896 45.2747 79.3737 45.4727 79.8867 45.4727C80.1159 45.4727 80.3398 45.431 80.5586 45.3477C80.7799 45.2643 80.9857 45.1432 81.1758 44.9844V45.793Z" fill="black"/>
<path d="M84.2109 42.1289C83.8464 42.1289 83.5703 42.2708 83.3828 42.5547C83.1953 42.8385 83.1016 43.2591 83.1016 43.8164C83.1016 44.3711 83.1953 44.7917 83.3828 45.0781C83.5703 45.362 83.8464 45.5039 84.2109 45.5039C84.5781 45.5039 84.8555 45.362 85.043 45.0781C85.2305 44.7917 85.3242 44.3711 85.3242 43.8164C85.3242 43.2591 85.2305 42.8385 85.043 42.5547C84.8555 42.2708 84.5781 42.1289 84.2109 42.1289ZM84.2109 41.5195C84.8177 41.5195 85.2812 41.7161 85.6016 42.1094C85.9245 42.5026 86.0859 43.0716 86.0859 43.8164C86.0859 44.5638 85.9258 45.1341 85.6055 45.5273C85.2852 45.918 84.8203 46.1133 84.2109 46.1133C83.6042 46.1133 83.1406 45.918 82.8203 45.5273C82.5 45.1341 82.3398 44.5638 82.3398 43.8164C82.3398 43.0716 82.5 42.5026 82.8203 42.1094C83.1406 41.7161 83.6042 41.5195 84.2109 41.5195Z" fill="black"/>
<path d="M90.7305 43.2891V46H90.0078V43.2891C90.0078 42.8958 89.9388 42.6068 89.8008 42.4219C89.6628 42.237 89.4466 42.1445 89.1523 42.1445C88.8164 42.1445 88.5573 42.2643 88.375 42.5039C88.1953 42.7409 88.1055 43.082 88.1055 43.5273V46H87.3867V41.625H88.1055V42.2812C88.2331 42.0312 88.4062 41.8424 88.625 41.7148C88.8438 41.5846 89.1029 41.5195 89.4023 41.5195C89.8477 41.5195 90.1797 41.6667 90.3984 41.9609C90.6198 42.2526 90.7305 42.6953 90.7305 43.2891Z" fill="black"/>
<path d="M93.8438 40.3828V41.625H95.4766V42.1836H93.8438V44.5586C93.8438 44.8815 93.9049 45.1068 94.0273 45.2344C94.1497 45.362 94.3633 45.4258 94.668 45.4258H95.4766V46H94.5977C94.0586 46 93.6784 45.8919 93.457 45.6758C93.2357 45.4596 93.125 45.0872 93.125 44.5586V42.1836H91.957V41.625H93.125V40.3828H93.8438Z" fill="black"/>
<path d="M100.777 42.5273C100.624 42.4076 100.467 42.3203 100.309 42.2656C100.15 42.2109 99.9753 42.1836 99.7852 42.1836C99.3372 42.1836 98.9948 42.3242 98.7578 42.6055C98.5208 42.8867 98.4023 43.293 98.4023 43.8242V46H97.6797V41.625H98.4023V42.4805C98.5221 42.1706 98.7057 41.9336 98.9531 41.7695C99.2031 41.6029 99.4987 41.5195 99.8398 41.5195C100.017 41.5195 100.182 41.5417 100.336 41.5859C100.49 41.6302 100.637 41.6992 100.777 41.793V42.5273Z" fill="black"/>
<path d="M103.492 42.1289C103.128 42.1289 102.852 42.2708 102.664 42.5547C102.477 42.8385 102.383 43.2591 102.383 43.8164C102.383 44.3711 102.477 44.7917 102.664 45.0781C102.852 45.362 103.128 45.5039 103.492 45.5039C103.859 45.5039 104.137 45.362 104.324 45.0781C104.512 44.7917 104.605 44.3711 104.605 43.8164C104.605 43.2591 104.512 42.8385 104.324 42.5547C104.137 42.2708 103.859 42.1289 103.492 42.1289ZM103.492 41.5195C104.099 41.5195 104.562 41.7161 104.883 42.1094C105.206 42.5026 105.367 43.0716 105.367 43.8164C105.367 44.5638 105.207 45.1341 104.887 45.5273C104.566 45.918 104.102 46.1133 103.492 46.1133C102.885 46.1133 102.422 45.918 102.102 45.5273C101.781 45.1341 101.621 44.5638 101.621 43.8164C101.621 43.0716 101.781 42.5026 102.102 42.1094C102.422 41.7161 102.885 41.5195 103.492 41.5195Z" fill="black"/>
<path d="M108.715 44.418C108.715 44.7409 108.773 44.9844 108.891 45.1484C109.01 45.3125 109.186 45.3945 109.418 45.3945H110.258V46H109.348C108.918 46 108.585 45.8633 108.348 45.5898C108.113 45.3138 107.996 44.9232 107.996 44.418V40.4609H106.844V39.8984H108.715V44.418Z" fill="black"/>
<path d="M55.8594 41L13.8594 26L97.8593 26L55.8594 41Z" fill="black"/>
<path d="M55.8594 0L97.8594 15H13.8594L55.8594 0Z" fill="black"/>
<path d="M13.8594 15H97.8594V26H13.8594V15Z" fill="black"/>
<path d="M30.2812 10.5625H33.4453L36.4688 19.4453L39.5156 10.5625H42.6914V28H40.5V12.5898L37.3828 21.7773H35.5898L32.4609 12.5898V28H30.2812V10.5625Z" fill="white"/>
<path d="M79.4336 27.3789C78.832 27.6992 78.2148 27.9375 77.582 28.0938C76.9492 28.2578 76.2773 28.3398 75.5664 28.3398C73.3242 28.3398 71.582 27.5469 70.3398 25.9609C69.1055 24.375 68.4883 22.1445 68.4883 19.2695C68.4883 16.4102 69.1094 14.1836 70.3516 12.5898C71.6016 10.9883 73.3398 10.1875 75.5664 10.1875C76.2773 10.1875 76.9492 10.2695 77.582 10.4336C78.2148 10.5898 78.832 10.8281 79.4336 11.1484V13.5742C78.8555 13.0977 78.2344 12.7344 77.5703 12.4844C76.9062 12.2344 76.2383 12.1094 75.5664 12.1094C74.0273 12.1094 72.875 12.7031 72.1094 13.8906C71.3438 15.0781 70.9609 16.8711 70.9609 19.2695C70.9609 21.6602 71.3438 23.4492 72.1094 24.6367C72.875 25.8242 74.0273 26.418 75.5664 26.418C76.2539 26.418 76.9258 26.293 77.582 26.043C78.2461 25.793 78.8633 25.4297 79.4336 24.9531V27.3789Z" fill="white"/>
<path d="M48.3926 5.75586H62.9648V8.74414H57.4629V29.0117H62.9648V32H48.3926V29.0117H53.8945V8.74414H48.3926V5.75586Z" fill="white"/>
</svg>
