<svg width="111" height="49" viewBox="0 0 111 49" fill="none" xmlns="http://www.w3.org/2000/svg">
<path d="M0.140625 41.1875H1.19531L2.20312 44.1484L3.21875 41.1875H4.27734V47H3.54688V41.8633L2.50781 44.9258H1.91016L0.867188 41.8633V47H0.140625V41.1875Z" fill="white"/>
<path d="M6.05469 42.6406H7.89453V46.4414H9.32031V47H5.75V46.4414H7.17578V43.1992H6.05469V42.6406ZM7.17578 40.9414H7.89453V41.8477H7.17578V40.9414Z" fill="white"/>
<path d="M13.7461 44.2891V47H13.0234V44.2891C13.0234 43.8958 12.9544 43.6068 12.8164 43.4219C12.6784 43.237 12.4622 43.1445 12.168 43.1445C11.832 43.1445 11.5729 43.2643 11.3906 43.5039C11.2109 43.7409 11.1211 44.082 11.1211 44.5273V47H10.4023V42.625H11.1211V43.2812C11.2487 43.0312 11.4219 42.8424 11.6406 42.7148C11.8594 42.5846 12.1185 42.5195 12.418 42.5195C12.8633 42.5195 13.1953 42.6667 13.4141 42.9609C13.6354 43.2526 13.7461 43.6953 13.7461 44.2891Z" fill="white"/>
<path d="M15.6953 42.6406H17.5352V46.4414H18.9609V47H15.3906V46.4414H16.8164V43.1992H15.6953V42.6406ZM16.8164 40.9414H17.5352V41.8477H16.8164V40.9414Z" fill="white"/>
<path d="M21.9219 43.0703C22.0104 42.8828 22.1224 42.7448 22.2578 42.6562C22.3958 42.5651 22.5612 42.5195 22.7539 42.5195C23.1055 42.5195 23.3529 42.6562 23.4961 42.9297C23.6419 43.2005 23.7148 43.7122 23.7148 44.4648V47H23.0586V44.4961C23.0586 43.8789 23.0234 43.4961 22.9531 43.3477C22.8854 43.1966 22.7604 43.1211 22.5781 43.1211C22.3698 43.1211 22.2266 43.2018 22.1484 43.3633C22.0729 43.5221 22.0352 43.8997 22.0352 44.4961V47H21.3789V44.4961C21.3789 43.8711 21.3411 43.4857 21.2656 43.3398C21.1927 43.194 21.0599 43.1211 20.8672 43.1211C20.6771 43.1211 20.5443 43.2018 20.4688 43.3633C20.3958 43.5221 20.3594 43.8997 20.3594 44.4961V47H19.707V42.625H20.3594V43C20.4453 42.8438 20.5521 42.7253 20.6797 42.6445C20.8099 42.5612 20.957 42.5195 21.1211 42.5195C21.319 42.5195 21.4831 42.5651 21.6133 42.6562C21.7461 42.7474 21.849 42.8854 21.9219 43.0703Z" fill="white"/>
<path d="M24.8633 45.3438V42.6328H25.582V45.3438C25.582 45.737 25.651 46.026 25.7891 46.2109C25.9297 46.3958 26.1458 46.4883 26.4375 46.4883C26.776 46.4883 27.0352 46.3698 27.2148 46.1328C27.3945 45.8932 27.4844 45.5508 27.4844 45.1055V42.6328H28.207V47H27.4844V46.3438C27.3568 46.5964 27.1823 46.7878 26.9609 46.918C26.7422 47.0482 26.4857 47.1133 26.1914 47.1133C25.7435 47.1133 25.4102 46.9674 25.1914 46.6758C24.9727 46.3815 24.8633 45.9375 24.8633 45.3438Z" fill="white"/>
<path d="M31.5625 43.0703C31.651 42.8828 31.763 42.7448 31.8984 42.6562C32.0365 42.5651 32.2018 42.5195 32.3945 42.5195C32.7461 42.5195 32.9935 42.6562 33.1367 42.9297C33.2826 43.2005 33.3555 43.7122 33.3555 44.4648V47H32.6992V44.4961C32.6992 43.8789 32.6641 43.4961 32.5938 43.3477C32.526 43.1966 32.401 43.1211 32.2188 43.1211C32.0104 43.1211 31.8672 43.2018 31.7891 43.3633C31.7135 43.5221 31.6758 43.8997 31.6758 44.4961V47H31.0195V44.4961C31.0195 43.8711 30.9818 43.4857 30.9062 43.3398C30.8333 43.194 30.7005 43.1211 30.5078 43.1211C30.3177 43.1211 30.1849 43.2018 30.1094 43.3633C30.0365 43.5221 30 43.8997 30 44.4961V47H29.3477V42.625H30V43C30.0859 42.8438 30.1927 42.7253 30.3203 42.6445C30.4505 42.5612 30.5977 42.5195 30.7617 42.5195C30.9596 42.5195 31.1237 42.5651 31.2539 42.6562C31.3867 42.7474 31.4896 42.8854 31.5625 43.0703Z" fill="white"/>
<path d="M34.5273 41.168H37.7656V41.832H36.543V46.3359H37.7656V47H34.5273V46.3359H35.75V41.832H34.5273V41.168Z" fill="white"/>
<path d="M42.668 44.2891V47H41.9453V44.2891C41.9453 43.8958 41.8763 43.6068 41.7383 43.4219C41.6003 43.237 41.3841 43.1445 41.0898 43.1445C40.7539 43.1445 40.4948 43.2643 40.3125 43.5039C40.1328 43.7409 40.043 44.082 40.043 44.5273V47H39.3242V42.625H40.043V43.2812C40.1706 43.0312 40.3438 42.8424 40.5625 42.7148C40.7812 42.5846 41.0404 42.5195 41.3398 42.5195C41.7852 42.5195 42.1172 42.6667 42.3359 42.9609C42.5573 43.2526 42.668 43.6953 42.668 44.2891Z" fill="white"/>
<path d="M43.7734 42.625H44.5195L45.7891 46.2969L47.0625 42.625H47.8086L46.2539 47H45.3281L43.7734 42.625Z" fill="white"/>
<path d="M52.5781 44.4531V44.8047H49.4648V44.8281C49.444 45.4245 49.5573 45.8529 49.8047 46.1133C50.0547 46.3737 50.4062 46.5039 50.8594 46.5039C51.0885 46.5039 51.3281 46.4674 51.5781 46.3945C51.8281 46.3216 52.0951 46.2109 52.3789 46.0625V46.7773C52.1055 46.8893 51.8411 46.9727 51.5859 47.0273C51.3333 47.0846 51.0885 47.1133 50.8516 47.1133C50.1719 47.1133 49.6406 46.9102 49.2578 46.5039C48.875 46.0951 48.6836 45.5326 48.6836 44.8164C48.6836 44.1185 48.8711 43.5612 49.2461 43.1445C49.6211 42.7279 50.1211 42.5195 50.7461 42.5195C51.3034 42.5195 51.7422 42.7083 52.0625 43.0859C52.3854 43.4635 52.5573 43.9193 52.5781 44.4531ZM51.8594 44.2422C51.8281 43.9401 51.7174 43.6797 51.5273 43.4609C51.3398 43.2396 51.069 43.1289 50.7148 43.1289C50.3685 43.1289 50.0833 43.2435 49.8594 43.4727C49.6354 43.7018 49.513 43.9596 49.4922 44.2461L51.8594 44.2422Z" fill="white"/>
<path d="M57.1289 44.2891V47H56.4062V44.2891C56.4062 43.8958 56.3372 43.6068 56.1992 43.4219C56.0612 43.237 55.8451 43.1445 55.5508 43.1445C55.2148 43.1445 54.9557 43.2643 54.7734 43.5039C54.5938 43.7409 54.5039 44.082 54.5039 44.5273V47H53.7852V42.625H54.5039V43.2812C54.6315 43.0312 54.8047 42.8424 55.0234 42.7148C55.2422 42.5846 55.5013 42.5195 55.8008 42.5195C56.2461 42.5195 56.5781 42.6667 56.7969 42.9609C57.0182 43.2526 57.1289 43.6953 57.1289 44.2891Z" fill="white"/>
<path d="M60.2422 41.3828V42.625H61.875V43.1836H60.2422V45.5586C60.2422 45.8815 60.3034 46.1068 60.4258 46.2344C60.5482 46.362 60.7617 46.4258 61.0664 46.4258H61.875V47H60.9961C60.457 47 60.0768 46.8919 59.8555 46.6758C59.6341 46.4596 59.5234 46.0872 59.5234 45.5586V43.1836H58.3555V42.625H59.5234V41.3828H60.2422Z" fill="white"/>
<path d="M65.0703 43.1289C64.7057 43.1289 64.4297 43.2708 64.2422 43.5547C64.0547 43.8385 63.9609 44.2591 63.9609 44.8164C63.9609 45.3711 64.0547 45.7917 64.2422 46.0781C64.4297 46.362 64.7057 46.5039 65.0703 46.5039C65.4375 46.5039 65.7148 46.362 65.9023 46.0781C66.0898 45.7917 66.1836 45.3711 66.1836 44.8164C66.1836 44.2591 66.0898 43.8385 65.9023 43.5547C65.7148 43.2708 65.4375 43.1289 65.0703 43.1289ZM65.0703 42.5195C65.6771 42.5195 66.1406 42.7161 66.4609 43.1094C66.7839 43.5026 66.9453 44.0716 66.9453 44.8164C66.9453 45.5638 66.7852 46.1341 66.4648 46.5273C66.1445 46.918 65.6797 47.1133 65.0703 47.1133C64.4635 47.1133 64 46.918 63.6797 46.5273C63.3594 46.1341 63.1992 45.5638 63.1992 44.8164C63.1992 44.0716 63.3594 43.5026 63.6797 43.1094C64 42.7161 64.4635 42.5195 65.0703 42.5195Z" fill="white"/>
<path d="M71.9961 43.5273C71.8424 43.4076 71.6862 43.3203 71.5273 43.2656C71.3685 43.2109 71.194 43.1836 71.0039 43.1836C70.556 43.1836 70.2135 43.3242 69.9766 43.6055C69.7396 43.8867 69.6211 44.293 69.6211 44.8242V47H68.8984V42.625H69.6211V43.4805C69.7409 43.1706 69.9245 42.9336 70.1719 42.7695C70.4219 42.6029 70.7174 42.5195 71.0586 42.5195C71.2357 42.5195 71.401 42.5417 71.5547 42.5859C71.7083 42.6302 71.8555 42.6992 71.9961 42.793V43.5273Z" fill="white"/>
<path d="M75.6562 45.5938C75.5365 45.8984 75.3841 46.2995 75.1992 46.7969C74.9414 47.4844 74.7682 47.9036 74.6797 48.0547C74.5599 48.2578 74.4102 48.4102 74.2305 48.5117C74.0508 48.6133 73.8411 48.6641 73.6016 48.6641H73.0234V48.0625H73.4492C73.6602 48.0625 73.8255 48.0013 73.9453 47.8789C74.0651 47.7565 74.2174 47.4401 74.4023 46.9297L72.7109 42.625H73.4727L74.7695 46.0469L76.0469 42.625H76.8086L75.6562 45.5938Z" fill="white"/>
<path d="M81.3164 46.793C81.1159 46.8997 80.9102 46.9792 80.6992 47.0312C80.4883 47.0859 80.2643 47.1133 80.0273 47.1133C79.2799 47.1133 78.6992 46.849 78.2852 46.3203C77.8737 45.7917 77.668 45.0482 77.668 44.0898C77.668 43.1367 77.875 42.3945 78.2891 41.8633C78.7057 41.3294 79.2852 41.0625 80.0273 41.0625C80.2643 41.0625 80.4883 41.0898 80.6992 41.1445C80.9102 41.1966 81.1159 41.276 81.3164 41.3828V42.1914C81.1237 42.0326 80.9167 41.9115 80.6953 41.8281C80.474 41.7448 80.2513 41.7031 80.0273 41.7031C79.5143 41.7031 79.1302 41.901 78.875 42.2969C78.6198 42.6927 78.4922 43.2904 78.4922 44.0898C78.4922 44.8867 78.6198 45.4831 78.875 45.8789C79.1302 46.2747 79.5143 46.4727 80.0273 46.4727C80.2565 46.4727 80.4805 46.431 80.6992 46.3477C80.9206 46.2643 81.1263 46.1432 81.3164 45.9844V46.793Z" fill="white"/>
<path d="M84.3516 43.1289C83.987 43.1289 83.7109 43.2708 83.5234 43.5547C83.3359 43.8385 83.2422 44.2591 83.2422 44.8164C83.2422 45.3711 83.3359 45.7917 83.5234 46.0781C83.7109 46.362 83.987 46.5039 84.3516 46.5039C84.7188 46.5039 84.9961 46.362 85.1836 46.0781C85.3711 45.7917 85.4648 45.3711 85.4648 44.8164C85.4648 44.2591 85.3711 43.8385 85.1836 43.5547C84.9961 43.2708 84.7188 43.1289 84.3516 43.1289ZM84.3516 42.5195C84.9583 42.5195 85.4219 42.7161 85.7422 43.1094C86.0651 43.5026 86.2266 44.0716 86.2266 44.8164C86.2266 45.5638 86.0664 46.1341 85.7461 46.5273C85.4258 46.918 84.9609 47.1133 84.3516 47.1133C83.7448 47.1133 83.2812 46.918 82.9609 46.5273C82.6406 46.1341 82.4805 45.5638 82.4805 44.8164C82.4805 44.0716 82.6406 43.5026 82.9609 43.1094C83.2812 42.7161 83.7448 42.5195 84.3516 42.5195Z" fill="white"/>
<path d="M90.8711 44.2891V47H90.1484V44.2891C90.1484 43.8958 90.0794 43.6068 89.9414 43.4219C89.8034 43.237 89.5872 43.1445 89.293 43.1445C88.957 43.1445 88.6979 43.2643 88.5156 43.5039C88.3359 43.7409 88.2461 44.082 88.2461 44.5273V47H87.5273V42.625H88.2461V43.2812C88.3737 43.0312 88.5469 42.8424 88.7656 42.7148C88.9844 42.5846 89.2435 42.5195 89.543 42.5195C89.9883 42.5195 90.3203 42.6667 90.5391 42.9609C90.7604 43.2526 90.8711 43.6953 90.8711 44.2891Z" fill="white"/>
<path d="M93.9844 41.3828V42.625H95.6172V43.1836H93.9844V45.5586C93.9844 45.8815 94.0456 46.1068 94.168 46.2344C94.2904 46.362 94.5039 46.4258 94.8086 46.4258H95.6172V47H94.7383C94.1992 47 93.819 46.8919 93.5977 46.6758C93.3763 46.4596 93.2656 46.0872 93.2656 45.5586V43.1836H92.0977V42.625H93.2656V41.3828H93.9844Z" fill="white"/>
<path d="M100.918 43.5273C100.764 43.4076 100.608 43.3203 100.449 43.2656C100.29 43.2109 100.116 43.1836 99.9258 43.1836C99.4779 43.1836 99.1354 43.3242 98.8984 43.6055C98.6615 43.8867 98.543 44.293 98.543 44.8242V47H97.8203V42.625H98.543V43.4805C98.6628 43.1706 98.8464 42.9336 99.0938 42.7695C99.3438 42.6029 99.6393 42.5195 99.9805 42.5195C100.158 42.5195 100.323 42.5417 100.477 42.5859C100.63 42.6302 100.777 42.6992 100.918 42.793V43.5273Z" fill="white"/>
<path d="M103.633 43.1289C103.268 43.1289 102.992 43.2708 102.805 43.5547C102.617 43.8385 102.523 44.2591 102.523 44.8164C102.523 45.3711 102.617 45.7917 102.805 46.0781C102.992 46.362 103.268 46.5039 103.633 46.5039C104 46.5039 104.277 46.362 104.465 46.0781C104.652 45.7917 104.746 45.3711 104.746 44.8164C104.746 44.2591 104.652 43.8385 104.465 43.5547C104.277 43.2708 104 43.1289 103.633 43.1289ZM103.633 42.5195C104.24 42.5195 104.703 42.7161 105.023 43.1094C105.346 43.5026 105.508 44.0716 105.508 44.8164C105.508 45.5638 105.348 46.1341 105.027 46.5273C104.707 46.918 104.242 47.1133 103.633 47.1133C103.026 47.1133 102.562 46.918 102.242 46.5273C101.922 46.1341 101.762 45.5638 101.762 44.8164C101.762 44.0716 101.922 43.5026 102.242 43.1094C102.562 42.7161 103.026 42.5195 103.633 42.5195Z" fill="white"/>
<path d="M108.855 45.418C108.855 45.7409 108.914 45.9844 109.031 46.1484C109.151 46.3125 109.327 46.3945 109.559 46.3945H110.398V47H109.488C109.059 47 108.725 46.8633 108.488 46.5898C108.254 46.3138 108.137 45.9232 108.137 45.418V41.4609H106.984V40.8984H108.855V45.418Z" fill="white"/>
<path d="M56 42L14 27L98 27L56 42Z" fill="white"/>
<path d="M56 1L98 16H14L56 1Z" fill="white"/>
<path d="M14 16H98V27H14V16Z" fill="white"/>
<path d="M30.4219 11.5625H33.5859L36.6094 20.4453L39.6562 11.5625H42.832V29H40.6406V13.5898L37.5234 22.7773H35.7305L32.6016 13.5898V29H30.4219V11.5625Z" fill="black"/>
<path d="M79.5742 28.3789C78.9727 28.6992 78.3555 28.9375 77.7227 29.0938C77.0898 29.2578 76.418 29.3398 75.707 29.3398C73.4648 29.3398 71.7227 28.5469 70.4805 26.9609C69.2461 25.375 68.6289 23.1445 68.6289 20.2695C68.6289 17.4102 69.25 15.1836 70.4922 13.5898C71.7422 11.9883 73.4805 11.1875 75.707 11.1875C76.418 11.1875 77.0898 11.2695 77.7227 11.4336C78.3555 11.5898 78.9727 11.8281 79.5742 12.1484V14.5742C78.9961 14.0977 78.375 13.7344 77.7109 13.4844C77.0469 13.2344 76.3789 13.1094 75.707 13.1094C74.168 13.1094 73.0156 13.7031 72.25 14.8906C71.4844 16.0781 71.1016 17.8711 71.1016 20.2695C71.1016 22.6602 71.4844 24.4492 72.25 25.6367C73.0156 26.8242 74.168 27.418 75.707 27.418C76.3945 27.418 77.0664 27.293 77.7227 27.043C78.3867 26.793 79.0039 26.4297 79.5742 25.9531V28.3789Z" fill="black"/>
<path d="M48.5332 6.75586H63.1055V9.74414H57.6035V30.0117H63.1055V33H48.5332V30.0117H54.0352V9.74414H48.5332V6.75586Z" fill="black"/>
</svg>
