<svg width="25" height="20" viewBox="0 0 25 20" fill="none" xmlns="http://www.w3.org/2000/svg">
<path d="M17.938 6.2959L15.2579 9.10429L12.5775 6.2959L11.7228 7.1912L14.4032 9.99995L11.7228 12.8086L12.5775 13.704L15.2579 10.8952L17.938 13.704L18.7928 12.8086L16.1124 9.99995L18.7928 7.1912L17.938 6.2959Z" fill="white"/>
<path d="M21.8933 0H9.60037C8.4661 0 7.38714 0.51524 6.64271 1.41259L0.363672 8.98088C0.122071 9.2714 -0.000341082 9.63775 7.13785e-07 10C-0.000341082 10.3623 0.122071 10.7283 0.363672 11.0191L6.64276 18.5881C7.38749 19.4852 8.4661 20 9.60042 20H21.8934C23.6094 19.9993 24.9997 18.5428 25 16.7446V3.25568C24.9996 1.45715 23.6093 0.000306995 21.8933 0ZM23.6591 16.7446C23.6587 17.2578 23.4623 17.7158 23.1419 18.0529C22.82 18.3888 22.383 18.5942 21.8933 18.5949H9.60037C8.85399 18.5949 8.14432 18.256 7.65458 17.666L1.37588 10.0974C1.35166 10.0679 1.34116 10.036 1.34082 10C1.34111 9.96398 1.35161 9.9321 1.37549 9.90325L7.65487 2.33464C8.14461 1.74394 8.85428 1.40506 9.60037 1.40506H21.8933C22.3831 1.40542 22.8201 1.61085 23.1419 1.94706C23.4623 2.28389 23.6587 2.74218 23.6591 3.25568V16.7446Z" fill="white"/>
</svg>
