<svg width="25" height="25" viewBox="0 0 25 25" fill="none" xmlns="http://www.w3.org/2000/svg">
<path d="M20.0001 0.036377C17.2387 0.036377 15.0001 2.27476 15.0001 5.03613C15.0001 7.79751 17.2387 10.0364 20.0001 10.0364C22.7614 10.0364 25.0001 7.79751 25.0001 5.03613C25.0001 2.27476 22.7614 0.036377 20.0001 0.036377Z" fill="white"/>
<path d="M8.55059 12.924L15.445 9.16758C14.8556 8.51841 14.3979 7.74658 14.1272 6.89087L7.41836 10.9439C6.63188 10.159 5.54668 9.67388 4.34814 9.67388C1.94673 9.67388 0 11.6201 0 14.0217C0 16.4229 1.94673 18.3691 4.34805 18.3691C6.74897 18.3691 8.6957 16.4229 8.6957 14.0217C8.6957 13.6417 8.64209 13.2756 8.55059 12.924Z" fill="white"/>
<path d="M17.3915 17.5725C16.3339 17.5725 15.3826 18.0193 14.709 18.7312L9.57892 15.7345C9.35753 16.4085 9.0111 17.0257 8.56476 17.5577L13.8204 20.3303C13.7417 20.6305 13.6957 20.9435 13.6957 21.268C13.6957 23.309 15.3503 24.9635 17.3915 24.9635C19.4324 24.9635 21.0869 23.309 21.0869 21.268C21.0869 19.2271 19.4324 17.5725 17.3915 17.5725Z" fill="white"/>
</svg>
